<svg width="547" height="224" viewBox="0 0 547 224" fill="none" xmlns="http://www.w3.org/2000/svg">
    <g filter="url(#filter0_f_125_727)">
        <ellipse cx="273.5" cy="195.096" rx="256.5" ry="11.5" fill="#DCDCDC"/>
    </g>
    <path d="M37.0449 149.028V126.798L115.738 2.48973H133.255V35.2119H122.14L65.8547 124.309V125.731H173.713V149.028H37.0449ZM123.385 184.596V142.27L123.563 132.134V2.48973H149.616V184.596H123.385Z" fill="#222222"/>
    <path d="M268.101 187.619C254.052 187.56 242.048 183.855 232.089 176.504C222.13 169.154 214.512 158.454 209.237 144.404C203.961 130.355 201.323 113.431 201.323 93.6317C201.323 73.8917 203.961 57.0267 209.237 43.0368C214.572 29.0469 222.219 18.3766 232.178 11.026C242.196 3.67532 254.17 0 268.101 0C282.032 0 293.976 3.70496 303.935 11.1149C313.894 18.4655 321.512 29.1358 326.787 43.1257C332.123 57.0563 334.79 73.8917 334.79 93.6317C334.79 113.49 332.152 130.444 326.876 144.493C321.6 158.483 313.983 169.183 304.024 176.593C294.065 183.944 282.091 187.619 268.101 187.619ZM268.101 163.878C280.431 163.878 290.064 157.861 297 145.827C303.995 133.793 307.492 116.395 307.492 93.6317C307.492 78.5155 305.891 65.7408 302.69 55.3076C299.549 44.8152 295.014 36.8717 289.086 31.4773C283.217 26.0236 276.222 23.2968 268.101 23.2968C255.83 23.2968 246.197 29.3433 239.202 41.4362C232.207 53.5292 228.68 70.9277 228.621 93.6317C228.621 108.807 230.192 121.641 233.334 132.134C236.535 142.567 241.07 150.481 246.938 155.875C252.807 161.21 259.861 163.878 268.101 163.878Z" fill="#222222"/>
    <path d="M362.511 149.028V126.798L441.204 2.48973H458.721V35.2119H447.606L391.32 124.309V125.731H499.179V149.028H362.511ZM448.851 184.596V142.27L449.029 132.134V2.48973H475.082V184.596H448.851Z" fill="#222222"/>
    <defs>
        <filter id="filter0_f_125_727" x="0" y="166.596" width="547" height="57" filterUnits="userSpaceOnUse" color-interpolation-filters="sRGB">
            <feFlood flood-opacity="0" result="BackgroundImageFix"/>
            <feBlend mode="normal" in="SourceGraphic" in2="BackgroundImageFix" result="shape"/>
            <feGaussianBlur stdDeviation="8.5" result="effect1_foregroundBlur_125_727"/>
        </filter>
    </defs>
</svg>
