<svg width="492" height="49" viewBox="0 0 492 49" fill="none" xmlns="http://www.w3.org/2000/svg">
<path d="M0.0454545 48V1.45454H9.88636V21.9773H10.5L27.25 1.45454H39.0455L21.7727 22.2955L39.25 48H27.4773L14.7273 28.8636L9.88636 34.7727V48H0.0454545ZM52.1932 48H41.6477L57.7159 1.45454H70.3977L86.4432 48H75.8977L64.2386 12.0909H63.875L52.1932 48ZM51.5341 29.7045H76.4432V37.3864H51.5341V29.7045ZM84.5852 9.56818V1.45454H122.812V9.56818H108.562V48H98.8352V9.56818H84.5852ZM129.108 48V1.45454H160.472V9.56818H138.949V20.6591H158.858V28.7727H138.949V39.8864H160.562V48H129.108ZM183.108 48V1.45454H201.472C204.987 1.45454 207.987 2.08333 210.472 3.34091C212.972 4.58333 214.873 6.34848 216.176 8.63636C217.494 10.9091 218.153 13.5833 218.153 16.6591C218.153 19.75 217.487 22.4091 216.153 24.6364C214.82 26.8485 212.888 28.5455 210.358 29.7273C207.843 30.9091 204.797 31.5 201.222 31.5H188.926V23.5909H199.631C201.509 23.5909 203.07 23.3333 204.312 22.8182C205.555 22.303 206.479 21.5303 207.085 20.5C207.706 19.4697 208.017 18.1894 208.017 16.6591C208.017 15.1136 207.706 13.8106 207.085 12.75C206.479 11.6894 205.547 10.8864 204.29 10.3409C203.047 9.7803 201.479 9.5 199.585 9.5H192.949V48H183.108ZM208.244 26.8182L219.812 48H208.949L197.631 26.8182H208.244ZM220.443 1.45454H231.466L242.08 21.5H242.534L253.148 1.45454H264.17L247.193 31.5455V48H237.42V31.5455L220.443 1.45454ZM269.045 48V42.1591L292.273 9.56818H269V1.45454H304.636V7.29545L281.386 39.8864H304.682V48H269.045ZM312.233 48V1.45454H322.074V20.6591H342.051V1.45454H351.869V48H342.051V28.7727H322.074V48H312.233ZM402.756 24.7273C402.756 29.803 401.794 34.1212 399.869 37.6818C397.96 41.2424 395.354 43.9621 392.051 45.8409C388.763 47.7045 385.066 48.6364 380.96 48.6364C376.824 48.6364 373.112 47.697 369.824 45.8182C366.536 43.9394 363.938 41.2197 362.028 37.6591C360.119 34.0985 359.165 29.7879 359.165 24.7273C359.165 19.6515 360.119 15.3333 362.028 11.7727C363.938 8.21212 366.536 5.5 369.824 3.63636C373.112 1.75757 376.824 0.81818 380.96 0.81818C385.066 0.81818 388.763 1.75757 392.051 3.63636C395.354 5.5 397.96 8.21212 399.869 11.7727C401.794 15.3333 402.756 19.6515 402.756 24.7273ZM392.778 24.7273C392.778 21.4394 392.286 18.6667 391.301 16.4091C390.331 14.1515 388.96 12.4394 387.188 11.2727C385.415 10.1061 383.339 9.52273 380.96 9.52273C378.581 9.52273 376.506 10.1061 374.733 11.2727C372.96 12.4394 371.581 14.1515 370.597 16.4091C369.627 18.6667 369.142 21.4394 369.142 24.7273C369.142 28.0152 369.627 30.7879 370.597 33.0455C371.581 35.303 372.96 37.0152 374.733 38.1818C376.506 39.3485 378.581 39.9318 380.96 39.9318C383.339 39.9318 385.415 39.3485 387.188 38.1818C388.96 37.0152 390.331 35.303 391.301 33.0455C392.286 30.7879 392.778 28.0152 392.778 24.7273ZM415.83 1.45454L427.08 36.8182H427.511L438.784 1.45454H449.693L433.648 48H420.966L404.898 1.45454H415.83ZM457.131 48H446.585L462.653 1.45454H475.335L491.381 48H480.835L469.176 12.0909H468.812L457.131 48ZM456.472 29.7045H481.381V37.3864H456.472V29.7045Z" fill="white"/>
</svg>
