<svg width="35" height="35" viewBox="0 0 35 35" fill="none" xmlns="http://www.w3.org/2000/svg">
<path d="M19.2565 0.418362C20.5031 0.413578 21.7498 0.426107 22.996 0.455945L23.3275 0.467903C23.7101 0.48157 24.0877 0.498653 24.5438 0.519153C26.3615 0.60457 27.6017 0.891571 28.6899 1.31353C29.8174 1.74745 30.7673 2.33511 31.7171 3.28495C32.5856 4.13844 33.2577 5.17086 33.6868 6.31041C34.1088 7.39861 34.3958 8.64057 34.4812 10.4582C34.5017 10.9127 34.5188 11.2919 34.5324 11.6746L34.5427 12.006C34.573 13.2517 34.5861 14.4978 34.582 15.7438L34.5837 17.0182V19.2562C34.5879 20.5028 34.5748 21.7494 34.5444 22.9957L34.5341 23.3271C34.5205 23.7098 34.5034 24.0873 34.4829 24.5435C34.3975 26.3611 34.107 27.6014 33.6868 28.6896C33.2591 29.8303 32.5868 30.8636 31.7171 31.7167C30.8629 32.5851 29.8299 33.2572 28.6899 33.6865C27.6017 34.1084 26.3615 34.3954 24.5438 34.4808C24.0877 34.5013 23.7101 34.5184 23.3275 34.5321L22.996 34.5423C21.7498 34.5727 20.5031 34.5858 19.2565 34.5816L17.9821 34.5833H15.7459C14.4992 34.5875 13.2526 34.5744 12.0063 34.544L11.6749 34.5338C11.2694 34.5191 10.8639 34.502 10.4586 34.4825C8.64092 34.3971 7.40067 34.1067 6.31075 33.6865C5.17075 33.2583 4.13816 32.586 3.28529 31.7167C2.41583 30.8631 1.74305 29.83 1.31388 28.6896C0.891918 27.6014 0.604918 26.3611 0.519501 24.5435C0.500475 24.1381 0.483392 23.7326 0.468251 23.3271L0.45971 22.9957C0.428214 21.7494 0.413977 20.5028 0.417001 19.2562V15.7438C0.412233 14.4978 0.424763 13.2517 0.454585 12.006L0.466543 11.6746C0.48021 11.2919 0.497293 10.9127 0.517793 10.4582C0.60321 8.63886 0.89021 7.40032 1.31217 6.31041C1.7416 5.1703 2.41569 4.13816 3.287 3.28665C4.13928 2.41669 5.17123 1.7433 6.31075 1.31353C7.40067 0.891571 8.63921 0.60457 10.4586 0.519153L11.6749 0.467903L12.0063 0.459362C13.252 0.427882 14.4981 0.413645 15.7442 0.416653L19.2565 0.418362ZM17.5003 8.96003C16.3686 8.94403 15.2449 9.15311 14.1947 9.57515C13.1444 9.99718 12.1885 10.6237 11.3825 11.4184C10.5765 12.2131 9.93652 13.16 9.49968 14.2042C9.06283 15.2484 8.83787 16.369 8.83787 17.5008C8.83787 18.6327 9.06283 19.7533 9.49968 20.7975C9.93652 21.8417 10.5765 22.7886 11.3825 23.5833C12.1885 24.378 13.1444 25.0045 14.1947 25.4265C15.2449 25.8486 16.3686 26.0577 17.5003 26.0417C19.7657 26.0417 21.9383 25.1417 23.5402 23.5399C25.1421 21.938 26.042 19.7654 26.042 17.5C26.042 15.2346 25.1421 13.062 23.5402 11.4601C21.9383 9.85825 19.7657 8.96003 17.5003 8.96003ZM17.5003 12.3767C18.1811 12.3642 18.8576 12.4874 19.4902 12.7392C20.1228 12.991 20.6989 13.3664 21.1848 13.8434C21.6708 14.3204 22.0568 14.8894 22.3203 15.5172C22.5838 16.145 22.7196 16.8191 22.7198 17.5C22.7199 18.1809 22.5843 18.855 22.321 19.4829C22.0576 20.1108 21.6718 20.68 21.1861 21.1571C20.7003 21.6342 20.1243 22.0098 19.4918 22.2618C18.8592 22.5138 18.1828 22.6373 17.502 22.625C16.1428 22.625 14.8392 22.085 13.8781 21.1239C12.917 20.1628 12.377 18.8592 12.377 17.5C12.377 16.1408 12.917 14.8372 13.8781 13.8761C14.8392 12.9149 16.1428 12.375 17.502 12.375L17.5003 12.3767ZM26.4691 6.39753C25.918 6.41959 25.3968 6.65404 25.0146 7.05177C24.6325 7.44951 24.4191 7.97968 24.4191 8.53124C24.4191 9.0828 24.6325 9.61297 25.0146 10.0107C25.3968 10.4084 25.918 10.6429 26.4691 10.6649C27.0354 10.6649 27.5786 10.44 27.9791 10.0395C28.3795 9.63903 28.6045 9.09588 28.6045 8.52953C28.6045 7.96318 28.3795 7.42003 27.9791 7.01956C27.5786 6.6191 27.0354 6.39411 26.4691 6.39411V6.39753Z" fill="#222222"/>
</svg>
