<svg width="31" height="31" viewBox="0 0 31 31" fill="none" xmlns="http://www.w3.org/2000/svg">
<path d="M16.9994 0.918054C18.0636 0.91397 19.1278 0.924666 20.1916 0.950138L20.4746 0.960346C20.8012 0.972013 21.1235 0.986596 21.5129 1.0041C23.0646 1.07701 24.1233 1.32201 25.0523 1.68222C26.0148 2.05264 26.8256 2.5543 27.6364 3.36514C28.3778 4.09373 28.9516 4.97506 29.3179 5.94785C29.6781 6.87681 29.9231 7.93701 29.996 9.48868C30.0135 9.8766 30.0281 10.2003 30.0398 10.527L30.0485 10.8099C30.0744 11.8733 30.0856 12.9371 30.0821 14.0008L30.0835 15.0887V16.9991C30.0871 18.0633 30.0759 19.1275 30.05 20.1914L30.0412 20.4743C30.0296 20.801 30.015 21.1233 29.9975 21.5126C29.9246 23.0643 29.6767 24.1231 29.3179 25.052C28.9528 26.0258 28.3789 26.9079 27.6364 27.6362C26.9072 28.3775 26.0254 28.9512 25.0523 29.3176C24.1233 29.6779 23.0646 29.9229 21.5129 29.9958C21.1235 30.0133 20.8012 30.0279 20.4746 30.0395L20.1916 30.0483C19.1278 30.0742 18.0636 30.0854 16.9994 30.0818L15.9114 30.0833H14.0025C12.9383 30.0869 11.8741 30.0757 10.8102 30.0497L10.5273 30.041C10.1811 30.0284 9.83496 30.0138 9.48894 29.9972C7.93727 29.9243 6.87852 29.6764 5.94811 29.3176C4.97494 28.9521 4.09345 28.3782 3.3654 27.6362C2.62317 26.9074 2.04885 26.0255 1.68248 25.052C1.32227 24.1231 1.07727 23.0643 1.00436 21.5126C0.988115 21.1666 0.973532 20.8205 0.960607 20.4743L0.953316 20.1914C0.926429 19.1275 0.914275 18.0633 0.916857 16.9991V14.0008C0.912787 12.9371 0.923483 11.8733 0.948941 10.8099L0.959149 10.527C0.970815 10.2003 0.985399 9.8766 1.0029 9.48868C1.07582 7.93556 1.32082 6.87826 1.68102 5.94785C2.04761 4.97458 2.62305 4.0935 3.36686 3.3666C4.09441 2.62394 4.97534 2.0491 5.94811 1.68222C6.87852 1.32201 7.93582 1.07701 9.48894 1.0041L10.5273 0.960346L10.8102 0.953054C11.8736 0.926181 12.9373 0.914027 14.001 0.916596L16.9994 0.918054ZM15.5002 8.20972C14.5341 8.19606 13.5748 8.37455 12.6783 8.73482C11.7817 9.09509 10.9657 9.62996 10.2777 10.3083C9.58963 10.9867 9.04327 11.7951 8.67036 12.6865C8.29744 13.5778 8.10541 14.5344 8.10541 15.5007C8.10541 16.4669 8.29744 17.4235 8.67036 18.3149C9.04327 19.2062 9.58963 20.0146 10.2777 20.693C10.9657 21.3714 11.7817 21.9062 12.6783 22.2665C13.5748 22.6268 14.5341 22.8053 15.5002 22.7916C17.4341 22.7916 19.2887 22.0234 20.6562 20.6559C22.0236 19.2885 22.7919 17.4338 22.7919 15.4999C22.7919 13.5661 22.0236 11.7114 20.6562 10.3439C19.2887 8.97649 17.4341 8.20972 15.5002 8.20972ZM15.5002 11.1264C16.0813 11.1157 16.6588 11.2209 17.1989 11.4359C17.7389 11.6508 18.2307 11.9713 18.6455 12.3784C19.0603 12.7856 19.3898 13.2714 19.6148 13.8073C19.8398 14.3433 19.9557 14.9187 19.9558 15.4999C19.9559 16.0812 19.8402 16.6566 19.6154 17.1926C19.3906 17.7287 19.0612 18.2145 18.6465 18.6218C18.2319 19.0292 17.7402 19.3497 17.2002 19.5649C16.6602 19.7801 16.0828 19.8854 15.5016 19.8749C14.3413 19.8749 13.2285 19.414 12.4081 18.5935C11.5876 17.7731 11.1266 16.6603 11.1266 15.4999C11.1266 14.3396 11.5876 13.2268 12.4081 12.4063C13.2285 11.5859 14.3413 11.1249 15.5016 11.1249L15.5002 11.1264ZM23.1564 6.02222C22.686 6.04105 22.241 6.24119 21.9148 6.58072C21.5886 6.92025 21.4064 7.37284 21.4064 7.84368C21.4064 8.31453 21.5886 8.76711 21.9148 9.10664C22.241 9.44617 22.686 9.64631 23.1564 9.66514C23.6399 9.66514 24.1036 9.47308 24.4454 9.13122C24.7873 8.78936 24.9794 8.32569 24.9794 7.84222C24.9794 7.35876 24.7873 6.89509 24.4454 6.55323C24.1036 6.21136 23.6399 6.01931 23.1564 6.01931V6.02222Z" fill="white"/>
</svg>
