<svg width="240" height="36" viewBox="0 0 240 36" fill="none" xmlns="http://www.w3.org/2000/svg">
<path d="M0.346591 28V0.363636H3.69318V14.0739H4.01705L16.4318 0.363636H20.804L9.19886 12.8324L20.804 28H16.7557L7.14773 15.1534L3.69318 19.0398V28H0.346591ZM30.8033 28.4858C29.4898 28.4858 28.2978 28.2384 27.2273 27.7436C26.1567 27.2398 25.3066 26.5156 24.6768 25.571C24.0471 24.6174 23.7322 23.4659 23.7322 22.1165C23.7322 20.929 23.9661 19.9664 24.4339 19.2287C24.9018 18.482 25.527 17.8973 26.3097 17.4744C27.0923 17.0516 27.956 16.7367 28.9006 16.5298C29.8542 16.3139 30.8123 16.143 31.7749 16.017C33.0343 15.8551 34.0554 15.7337 34.8381 15.6527C35.6297 15.5627 36.2055 15.4143 36.5653 15.2074C36.9342 15.0005 37.1186 14.6406 37.1186 14.1278V14.0199C37.1186 12.6884 36.7543 11.6539 36.0256 10.9162C35.3059 10.1785 34.2128 9.80966 32.7464 9.80966C31.2261 9.80966 30.0341 10.1425 29.1705 10.8082C28.3068 11.474 27.6996 12.1847 27.3487 12.9403L24.326 11.8608C24.8658 10.6013 25.5855 9.62074 26.4851 8.91903C27.3937 8.20833 28.3833 7.71354 29.4538 7.43466C30.5334 7.14678 31.5949 7.00284 32.6385 7.00284C33.3042 7.00284 34.0689 7.08381 34.9325 7.24574C35.8052 7.39867 36.6463 7.71804 37.456 8.20383C38.2746 8.68963 38.9538 9.42282 39.4936 10.4034C40.0334 11.384 40.3033 12.6974 40.3033 14.3438V28H37.1186V25.1932H36.9567C36.7408 25.643 36.3809 26.1243 35.8771 26.6371C35.3733 27.1499 34.7031 27.5862 33.8665 27.946C33.0298 28.3059 32.0088 28.4858 30.8033 28.4858ZM31.2891 25.625C32.5485 25.625 33.6101 25.3776 34.4737 24.8828C35.3464 24.388 36.0031 23.7493 36.4439 22.9666C36.8937 22.1839 37.1186 21.3608 37.1186 20.4972V17.5824C36.9837 17.7443 36.6868 17.8928 36.228 18.0277C35.7782 18.1536 35.2564 18.2661 34.6626 18.3651C34.0779 18.455 33.5066 18.536 32.9489 18.608C32.4001 18.6709 31.9548 18.7249 31.6129 18.7699C30.7853 18.8778 30.0116 19.0533 29.2919 19.2962C28.5812 19.5301 28.0054 19.8854 27.5646 20.3622C27.1328 20.83 26.9169 21.4687 26.9169 22.2784C26.9169 23.3849 27.3262 24.2216 28.1449 24.7884C28.9725 25.3461 30.0206 25.625 31.2891 25.625ZM55.1301 7.27273V9.97159H44.3887V7.27273H55.1301ZM47.5194 2.30682H50.704V22.0625C50.704 22.9621 50.8345 23.6368 51.0953 24.0866C51.3652 24.5275 51.7071 24.8243 52.1209 24.9773C52.5437 25.1212 52.9891 25.1932 53.4569 25.1932C53.8077 25.1932 54.0956 25.1752 54.3205 25.1392C54.5454 25.0942 54.7253 25.0582 54.8603 25.0312L55.508 27.892C55.2921 27.973 54.9907 28.054 54.6039 28.1349C54.217 28.2249 53.7267 28.2699 53.133 28.2699C52.2334 28.2699 51.3517 28.0765 50.4881 27.6896C49.6335 27.3028 48.9228 26.7135 48.356 25.9219C47.7982 25.1302 47.5194 24.1316 47.5194 22.9261V2.30682ZM68.3883 28.4318C66.3912 28.4318 64.6684 27.991 63.22 27.1094C61.7806 26.2188 60.6696 24.9773 59.8869 23.3849C59.1132 21.7836 58.7264 19.9214 58.7264 17.7983C58.7264 15.6752 59.1132 13.804 59.8869 12.1847C60.6696 10.5563 61.7581 9.28788 63.1525 8.37926C64.5559 7.46165 66.1932 7.00284 68.0645 7.00284C69.144 7.00284 70.2101 7.18276 71.2626 7.54261C72.3152 7.90246 73.2733 8.48722 74.1369 9.29688C75.0005 10.0975 75.6887 11.1591 76.2015 12.4815C76.7143 13.804 76.9707 15.4323 76.9707 17.3665V18.7159H60.9934V15.9631H73.7321C73.7321 14.7936 73.4982 13.75 73.0304 12.8324C72.5716 11.9148 71.9148 11.1906 71.0602 10.6598C70.2145 10.129 69.216 9.86364 68.0645 9.86364C66.796 9.86364 65.6984 10.1785 64.7718 10.8082C63.8542 11.429 63.148 12.2386 62.6532 13.2372C62.1584 14.2358 61.911 15.3063 61.911 16.4489V18.2841C61.911 19.8494 62.1809 21.1764 62.7207 22.2649C63.2695 23.3445 64.0297 24.1676 65.0012 24.7344C65.9728 25.2921 67.1019 25.571 68.3883 25.571C69.225 25.571 69.9806 25.4541 70.6554 25.2202C71.3391 24.9773 71.9283 24.6174 72.4231 24.1406C72.9179 23.6548 73.3002 23.0521 73.5701 22.3324L76.6468 23.196C76.323 24.2396 75.7787 25.1572 75.014 25.9489C74.2493 26.7315 73.3047 27.3433 72.1802 27.7841C71.0557 28.2159 69.7917 28.4318 68.3883 28.4318ZM92.9345 28V0.363636H102.273C104.432 0.363636 106.204 0.73248 107.589 1.47017C108.975 2.19886 110 3.20194 110.666 4.4794C111.332 5.75687 111.665 7.20975 111.665 8.83807C111.665 10.4664 111.332 11.9103 110.666 13.1697C110 14.4292 108.979 15.4188 107.603 16.1385C106.226 16.8492 104.468 17.2045 102.327 17.2045H94.7697V14.1818H102.219C103.694 14.1818 104.881 13.9659 105.781 13.5341C106.69 13.1023 107.346 12.4905 107.751 11.6989C108.165 10.8982 108.372 9.9446 108.372 8.83807C108.372 7.73153 108.165 6.76444 107.751 5.93679C107.337 5.10914 106.676 4.47041 105.768 4.0206C104.859 3.56179 103.658 3.33239 102.165 3.33239H96.2811V28H92.9345ZM105.943 15.5852L112.744 28H108.858L102.165 15.5852H105.943ZM118.86 35.7727C118.321 35.7727 117.839 35.7277 117.417 35.6378C116.994 35.5568 116.701 35.4759 116.539 35.3949L117.349 32.5881C118.123 32.786 118.806 32.858 119.4 32.804C119.994 32.75 120.52 32.4846 120.979 32.0078C121.447 31.54 121.874 30.7798 122.261 29.7273L122.855 28.108L115.19 7.27273H118.645L124.366 23.7898H124.582L130.304 7.27273H133.758L124.96 31.0227C124.564 32.0933 124.074 32.9794 123.489 33.6811C122.904 34.3918 122.225 34.9181 121.451 35.2599C120.687 35.6018 119.823 35.7727 118.86 35.7727ZM137.368 28V25.571L149.135 10.4574V10.2415H137.746V7.27273H153.237V9.80966L141.794 24.8153V25.0312H153.615V28H137.368ZM161.705 15.5312V28H158.52V0.363636H161.705V10.5114H161.975C162.461 9.44081 163.189 8.59067 164.161 7.96094C165.141 7.32221 166.446 7.00284 168.074 7.00284C169.487 7.00284 170.724 7.28622 171.785 7.85298C172.847 8.41075 173.67 9.26989 174.255 10.4304C174.848 11.5819 175.145 13.0483 175.145 14.8295V28H171.961V15.0455C171.961 13.3991 171.533 12.1262 170.679 11.2266C169.833 10.3179 168.659 9.86364 167.157 9.86364C166.113 9.86364 165.177 10.084 164.35 10.5249C163.531 10.9657 162.883 11.6089 162.407 12.4545C161.939 13.3002 161.705 14.3258 161.705 15.5312ZM189.392 28.4318C187.521 28.4318 185.879 27.9865 184.466 27.0959C183.063 26.2053 181.965 24.9593 181.174 23.358C180.391 21.7566 180 19.8854 180 17.7443C180 15.5852 180.391 13.7005 181.174 12.0902C181.965 10.4799 183.063 9.2294 184.466 8.33878C185.879 7.44815 187.521 7.00284 189.392 7.00284C191.263 7.00284 192.9 7.44815 194.304 8.33878C195.716 9.2294 196.814 10.4799 197.596 12.0902C198.388 13.7005 198.784 15.5852 198.784 17.7443C198.784 19.8854 198.388 21.7566 197.596 23.358C196.814 24.9593 195.716 26.2053 194.304 27.0959C192.9 27.9865 191.263 28.4318 189.392 28.4318ZM189.392 25.571C190.813 25.571 191.983 25.2067 192.9 24.478C193.818 23.7493 194.497 22.7912 194.938 21.6037C195.379 20.4162 195.599 19.1297 195.599 17.7443C195.599 16.3589 195.379 15.0679 194.938 13.8714C194.497 12.675 193.818 11.7079 192.9 10.9702C191.983 10.2325 190.813 9.86364 189.392 9.86364C187.97 9.86364 186.801 10.2325 185.883 10.9702C184.966 11.7079 184.287 12.675 183.846 13.8714C183.405 15.0679 183.184 16.3589 183.184 17.7443C183.184 19.1297 183.405 20.4162 183.846 21.6037C184.287 22.7912 184.966 23.7493 185.883 24.478C186.801 25.2067 187.97 25.571 189.392 25.571ZM219.852 7.27273L212.187 28H208.949L201.284 7.27273H204.738L210.46 23.7898H210.676L216.397 7.27273H219.852ZM229.524 28.4858C228.211 28.4858 227.019 28.2384 225.948 27.7436C224.877 27.2398 224.027 26.5156 223.398 25.571C222.768 24.6174 222.453 23.4659 222.453 22.1165C222.453 20.929 222.687 19.9664 223.155 19.2287C223.622 18.482 224.248 17.8973 225.03 17.4744C225.813 17.0516 226.677 16.7367 227.621 16.5298C228.575 16.3139 229.533 16.143 230.496 16.017C231.755 15.8551 232.776 15.7337 233.559 15.6527C234.35 15.5627 234.926 15.4143 235.286 15.2074C235.655 15.0005 235.839 14.6406 235.839 14.1278V14.0199C235.839 12.6884 235.475 11.6539 234.746 10.9162C234.027 10.1785 232.934 9.80966 231.467 9.80966C229.947 9.80966 228.755 10.1425 227.891 10.8082C227.028 11.474 226.42 12.1847 226.069 12.9403L223.047 11.8608C223.586 10.6013 224.306 9.62074 225.206 8.91903C226.114 8.20833 227.104 7.71354 228.175 7.43466C229.254 7.14678 230.316 7.00284 231.359 7.00284C232.025 7.00284 232.79 7.08381 233.653 7.24574C234.526 7.39867 235.367 7.71804 236.177 8.20383C236.995 8.68963 237.675 9.42282 238.214 10.4034C238.754 11.384 239.024 12.6974 239.024 14.3438V28H235.839V25.1932H235.677C235.461 25.643 235.102 26.1243 234.598 26.6371C234.094 27.1499 233.424 27.5862 232.587 27.946C231.751 28.3059 230.729 28.4858 229.524 28.4858ZM230.01 25.625C231.269 25.625 232.331 25.3776 233.194 24.8828C234.067 24.388 234.724 23.7493 235.165 22.9666C235.614 22.1839 235.839 21.3608 235.839 20.4972V17.5824C235.704 17.7443 235.407 17.8928 234.949 18.0277C234.499 18.1536 233.977 18.2661 233.383 18.3651C232.799 18.455 232.227 18.536 231.67 18.608C231.121 18.6709 230.675 18.7249 230.334 18.7699C229.506 18.8778 228.732 19.0533 228.013 19.2962C227.302 19.5301 226.726 19.8854 226.285 20.3622C225.854 20.83 225.638 21.4687 225.638 22.2784C225.638 23.3849 226.047 24.2216 226.866 24.7884C227.693 25.3461 228.741 25.625 230.01 25.625Z" fill="#222222"/>
</svg>
