<svg width="23" height="27" viewBox="0 0 23 27" fill="none" xmlns="http://www.w3.org/2000/svg">
<path d="M18.2569 4.4875C17.26 3.34945 16.7107 1.88792 16.7111 0.375H12.2048V18.4583C12.1701 19.4369 11.7569 20.3638 11.0524 21.0439C10.3479 21.7239 9.40693 22.104 8.42774 22.1042C6.3569 22.1042 4.63607 20.4125 4.63607 18.3125C4.63607 15.8042 7.0569 13.9229 9.55065 14.6958V10.0875C4.5194 9.41667 0.115234 13.325 0.115234 18.3125C0.115234 23.1688 4.14024 26.625 8.41315 26.625C12.9923 26.625 16.7111 22.9063 16.7111 18.3125V9.13958C18.5384 10.4519 20.7322 11.1559 22.9819 11.1521V6.64583C22.9819 6.64583 20.2402 6.77708 18.2569 4.4875Z" fill="white"/>
</svg>
