<svg width="27" height="31" viewBox="0 0 27 31" fill="none" xmlns="http://www.w3.org/2000/svg">
<path d="M21.3581 4.9425C20.1903 3.60935 19.5468 1.89728 19.5473 0.125H14.2685V21.3083C14.2278 22.4547 13.7439 23.5405 12.9185 24.3371C12.0932 25.1337 10.991 25.579 9.84395 25.5792C7.41811 25.5792 5.40228 23.5975 5.40228 21.1375C5.40228 18.1992 8.23811 15.9954 11.1594 16.9008V11.5025C5.26561 10.7167 0.106445 15.295 0.106445 21.1375C0.106445 26.8263 4.82145 30.875 9.82687 30.875C15.191 30.875 19.5473 26.5188 19.5473 21.1375V10.3921C21.6878 11.9293 24.2578 12.7541 26.8931 12.7496V7.47083C26.8931 7.47083 23.6815 7.62458 21.3581 4.9425Z" fill="#222222"/>
</svg>
